<svg width="16" height="16" viewBox="0 0 16 16" fill="none" xmlns="http://www.w3.org/2000/svg">
<path d="M15.0002 8.00004C15.0017 8.20512 14.9394 8.4056 14.8218 8.57362C14.7042 8.74163 14.5371 8.86883 14.3439 8.93754L10.3789 10.3794L8.93766 14.3438C8.86662 14.5352 8.73872 14.7002 8.57113 14.8168C8.40354 14.9333 8.20429 14.9958 8.00016 14.9958C7.79602 14.9958 7.59678 14.9333 7.42919 14.8168C7.2616 14.7002 7.1337 14.5352 7.06266 14.3438L5.62141 10.3788L1.65641 8.93754C1.46503 8.8665 1.29998 8.7386 1.18342 8.57101C1.06687 8.40342 1.00439 8.20417 1.00439 8.00004C1.00439 7.7959 1.06687 7.59666 1.18342 7.42907C1.29998 7.26148 1.46503 7.13357 1.65641 7.06254L5.62141 5.62129L7.06266 1.65629C7.1337 1.46491 7.2616 1.29986 7.42919 1.1833C7.59678 1.06675 7.79602 1.00427 8.00016 1.00427C8.20429 1.00427 8.40354 1.06675 8.57113 1.1833C8.73872 1.29986 8.86662 1.46491 8.93766 1.65629L10.3795 5.62129L14.3439 7.06254C14.5371 7.13124 14.7042 7.25844 14.8218 7.42646C14.9394 7.59447 15.0017 7.79495 15.0002 8.00004Z" fill="black"/>
</svg>
