<svg width="16" height="16" viewBox="0 0 16 16" fill="none" xmlns="http://www.w3.org/2000/svg">
<g clip-path="url(#clip0_1115_1536)">
<path d="M9.53124 0.03125L11.1636 0.042C11.1944 0.065875 11.2192 0.0815 11.2456 0.09325C11.5415 0.227 11.8622 0.32275 12.1289 0.5005C12.9019 1.01425 13.6567 1.55563 14.4111 2.09675C14.7617 2.34763 15.1074 2.60887 15.4306 2.893C15.6709 3.104 15.7787 3.40338 15.7794 3.72263L15.7787 13.769C15.7784 13.9091 15.7544 14.0532 15.7154 14.188C15.5381 14.8022 15.145 15.2226 14.5264 15.3868C14.2001 15.4731 13.8555 15.5 13.5171 15.5279C12.9892 15.5717 12.4595 15.5932 11.9306 15.625L10.9301 15.6875L9.32811 15.7817L8.34324 15.8433L6.72561 15.937L5.88961 15.9712C5.86274 15.9726 5.83786 16.0103 5.81249 16.0312C5.17624 16.0312 4.54049 16.0312 3.89886 16.021C3.86811 15.9966 3.84474 15.977 3.81736 15.9692C3.42961 15.8569 3.10449 15.6426 2.85449 15.3315C2.50824 14.9014 2.17924 14.458 1.84624 14.0176C1.43699 13.4765 1.01711 12.9434 0.630364 12.3868C0.403043 12.0615 0.281286 11.6742 0.281614 11.2774C0.280524 8.31025 0.280899 5.34312 0.282739 2.376C0.282739 2.2905 0.297739 2.20412 0.312489 2.11912C0.467739 1.20562 1.14399 0.71825 1.94824 0.627875C2.36574 0.581 2.78611 0.56 3.20561 0.53225L4.31436 0.46825L4.79099 0.437L6.22849 0.313L7.02536 0.2505L8.34524 0.15675L9.45399 0.09125C9.48099 0.089375 9.50586 0.05225 9.53124 0.03125ZM3.24311 14.273C3.30961 14.3594 3.38374 14.4414 3.44186 14.5332C3.72361 14.9741 4.12749 15.1343 4.64061 15.1001L8.11674 14.8931L12.0287 14.6567L13.9765 14.5312C14.5537 14.4849 14.8325 14.1729 14.8437 13.5938V13.4688L14.8481 3.98587C14.8486 3.70025 14.75 3.5005 14.5215 3.34087L11.7685 1.40087C11.3256 1.07862 10.8555 0.92825 10.311 0.97125L7.22799 1.19925L4.00436 1.437L1.98099 1.59475C1.57224 1.63225 1.31886 1.88225 1.24561 2.28325C1.2278 2.38561 1.21914 2.48935 1.21974 2.59325L1.21136 10.8735C1.20849 11.416 1.37449 11.8673 1.69924 12.2823L3.24311 14.273Z" fill="white"/>
<path d="M3.23584 14.2646L1.69922 12.2821C1.37447 11.8671 1.20847 11.4159 1.21134 10.8734L1.21972 2.59319C1.21972 2.48969 1.22747 2.38469 1.24559 2.28319C1.31884 1.88232 1.57222 1.63232 1.98097 1.59469L4.00434 1.43694L7.22809 1.19919L10.311 0.97119C10.8555 0.92819 11.3256 1.07857 11.7685 1.40082C12.6762 2.06144 13.601 2.69869 14.5215 3.34082C14.75 3.50044 14.8486 3.70019 14.8481 3.98582L14.8437 13.4692V13.5942C14.8325 14.1728 14.5537 14.4848 13.9765 14.5312C13.3281 14.5834 12.6782 14.6172 12.0287 14.6567L8.11671 14.8929L4.64059 15.1001C4.12747 15.1342 3.72359 14.9741 3.44184 14.5332C3.38372 14.4413 3.30959 14.3593 3.23584 14.2646ZM4.03659 8.51557V12.7016L4.03759 13.4823C4.04434 13.8324 4.21584 14.0068 4.56584 14.0268C4.65372 14.0317 4.74259 14.0287 4.83097 14.0233L7.76122 13.8506L13.3568 13.5307C13.7056 13.5112 13.8667 13.3583 13.8993 13.0127C13.9057 12.9506 13.9037 12.8877 13.9037 12.8252L13.9042 4.76557C13.9042 4.71869 13.9057 4.67182 13.9028 4.62494C13.8818 4.30419 13.7441 4.17332 13.4253 4.19032L10.5415 4.35644C9.19069 4.43502 7.83994 4.51411 6.48922 4.59369L4.46334 4.71532C4.20509 4.73182 4.08834 4.84319 4.04934 5.09569C4.04011 5.16265 4.03601 5.23023 4.03709 5.29782L4.03659 8.51557ZM11.1831 1.92469C10.9385 1.79194 10.6728 1.74794 10.3993 1.76307C9.97897 1.78607 9.55859 1.82069 9.13809 1.85107L3.14447 2.28657C2.96334 2.29969 2.78122 2.31282 2.60247 2.34519C2.54247 2.35594 2.46672 2.41644 2.44822 2.47119C2.43447 2.50969 2.49509 2.58744 2.53947 2.62994C2.62159 2.70844 2.71622 2.77432 2.80572 2.84519C3.01809 3.01269 3.24409 3.16544 3.43897 3.35057C3.80859 3.70157 4.23872 3.78269 4.73147 3.74707L8.61084 3.50382L12.7871 3.25332C12.8252 3.25144 12.8633 3.23969 12.9472 3.22407C12.8706 3.14444 12.8261 3.08344 12.7681 3.04044C12.5635 2.88934 12.3569 2.74091 12.1485 2.59519C11.8282 2.36953 11.5064 2.14602 11.1831 1.92469Z" fill="black"/>
<path d="M4.03665 8.50005L4.03715 5.29793C4.03715 5.23043 4.03915 5.16218 4.0494 5.0958C4.0884 4.8433 4.20515 4.73205 4.4634 4.71543L6.48928 4.5938L10.5415 4.35655L13.4253 4.19043C13.7442 4.17343 13.8819 4.30468 13.9028 4.62505C13.9058 4.67193 13.9043 4.7188 13.9043 4.76568L13.9038 12.8253L13.8994 13.0128C13.8668 13.3584 13.7057 13.5113 13.3569 13.5308L7.76128 13.8507L4.83103 14.0234L4.56603 14.0269C4.2159 14.0069 4.0444 13.8326 4.03765 13.4829L4.03665 12.7017V8.50005ZM9.7574 8.5083L8.1489 6.05768C8.09278 5.97218 8.03765 5.94393 7.93415 5.95518L7.24853 6.00143L5.98728 6.0938C5.67728 6.12218 5.48978 6.41368 5.57565 6.71593L6.24365 6.77305V12.1847L5.78865 12.3131C5.5869 12.3726 5.50053 12.5426 5.5684 12.7598L7.1069 12.6714L7.7129 12.6217C7.97415 12.5787 8.11478 12.4186 8.1499 12.1573L7.30865 11.9654V7.89505L7.37115 7.98255L9.30465 11.0016C9.58886 11.4424 9.88074 11.8783 10.1802 12.3091C10.3935 12.6153 10.708 12.7091 11.0615 12.6328C11.2828 12.5856 11.4952 12.4957 11.7119 12.4258C11.8248 12.3892 11.8633 12.3218 11.8628 12.1953L11.859 6.6328C11.859 6.30768 11.859 6.30768 12.1807 6.2428C12.5059 6.1773 12.5874 6.04743 12.5132 5.6998L10.5694 5.81793C10.3579 5.83305 10.1978 6.0098 10.1657 6.21543C10.1499 6.31455 10.1704 6.36918 10.289 6.37605L10.8775 6.44105V10.2134C10.5048 9.64481 10.1314 9.0766 9.7574 8.5088V8.5083ZM11.1938 1.93018C11.5129 2.15053 11.831 2.37219 12.1483 2.59518C12.3568 2.74093 12.5634 2.88941 12.768 3.04055C12.826 3.08355 12.8705 3.14455 12.9472 3.22418L12.787 3.25343L8.61078 3.50393L4.7314 3.74718C4.23865 3.7828 3.80853 3.70168 3.4389 3.35068C3.24403 3.16568 3.01803 3.0128 2.80553 2.8453C2.71615 2.77443 2.62153 2.70855 2.5394 2.62993C2.49503 2.58743 2.4344 2.50993 2.44815 2.47118C2.46665 2.41655 2.5429 2.35605 2.6024 2.3453C2.78115 2.31305 2.96328 2.2998 3.1444 2.28668L9.13815 1.85118L10.3994 1.76318C10.6728 1.74818 10.9384 1.79193 11.1938 1.93018Z" fill="white"/>
<path d="M9.76411 8.51746L10.8775 10.2133V6.44083L10.2891 6.37583C10.1704 6.36908 10.1499 6.31446 10.1655 6.21533C10.1977 6.00971 10.358 5.83296 10.5692 5.81783L12.5131 5.69971C12.5874 6.04721 12.5059 6.17721 12.1806 6.24258C11.8589 6.30708 11.8589 6.30708 11.8589 6.63271L11.8627 12.1952C11.8632 12.3217 11.8247 12.3891 11.7119 12.4257L11.0615 12.6327C10.708 12.7085 10.3935 12.6152 10.1802 12.309C9.88095 11.8782 9.58908 11.4423 9.30474 11.0015L7.37099 7.98233C7.35736 7.96083 7.34174 7.94083 7.30849 7.89496V11.9653L8.14986 12.1572C8.11474 12.4185 7.97411 12.5785 7.71286 12.6216C7.51361 12.6542 7.30911 12.6591 7.10686 12.6713L5.56836 12.7597C5.50049 12.5425 5.58686 12.3725 5.78861 12.313L6.24361 12.1846V6.77296L5.57561 6.71583C5.48974 6.41358 5.67724 6.12208 5.98724 6.09371C6.40674 6.05458 6.82811 6.03071 7.24849 6.00146C7.47699 5.98583 7.70649 5.97996 7.93411 5.95508C8.03761 5.94383 8.09286 5.97208 8.14886 6.05758L9.76411 8.51746Z" fill="black"/>
</g>
<defs>
<clipPath id="clip0_1115_1536">
<rect width="16" height="16" fill="white"/>
</clipPath>
</defs>
</svg>
