<svg width="50" height="50" viewBox="0 0 50 50" fill="none" xmlns="http://www.w3.org/2000/svg">
<path d="M6.25 48.3334C6.25 37.9782 14.6448 29.5834 25 29.5834C27.5863 29.5834 30.0502 30.107 32.2917 31.0541" stroke="#A0CB8A" stroke-width="3" stroke-linecap="round" stroke-linejoin="round"/>
<path d="M25 22.9167C30.753 22.9167 35.4167 18.253 35.4167 12.5C35.4167 6.74707 30.753 2.08337 25 2.08337C19.2471 2.08337 14.5834 6.74707 14.5834 12.5C14.5834 18.253 19.2471 22.9167 25 22.9167Z" stroke="#A0CB8A" stroke-width="3" stroke-linecap="round" stroke-linejoin="round"/>
<path fill-rule="evenodd" clip-rule="evenodd" d="M41.0766 30.2933L30.9986 40.3713C30.8479 40.5216 30.7491 40.716 30.7166 40.9263L30.0116 45.5203C29.9878 45.6754 30.0008 45.834 30.0497 45.9832C30.0986 46.1324 30.1819 46.2679 30.2929 46.3789C30.4039 46.4899 30.5395 46.5732 30.6886 46.6221C30.8378 46.671 30.9964 46.6841 31.1516 46.6603L35.7466 45.9553C35.9567 45.923 36.1511 45.8246 36.3016 45.6743L46.3796 35.5963C46.567 35.4088 46.6723 35.1545 46.6723 34.8893C46.6723 34.6241 46.567 34.3698 46.3796 34.1823L42.4896 30.2923C42.3021 30.1051 42.048 30 41.7831 30C41.5181 30 41.264 30.1051 41.0766 30.2923M32.1956 44.4773L32.6436 41.5533L41.7836 32.4133L44.2585 34.8893L35.1186 44.0293L32.1956 44.4773Z" fill="#A0CB8A"/>
<path d="M39.3206 34.3203L40.3806 33.2593L43.6226 36.4993L42.5616 37.5603L39.3206 34.3203Z" fill="#A0CB8A"/>
</svg>
