<svg width="50" height="50" viewBox="0 0 50 50" fill="none" xmlns="http://www.w3.org/2000/svg">
<path d="M6.25 48.3334C6.25 37.9782 14.6448 29.5834 25 29.5834C27.5863 29.5834 30.0502 30.107 32.2917 31.0541" stroke="#A0CB8A" stroke-width="2" stroke-linecap="round" stroke-linejoin="round"/>
<path d="M25 22.9167C30.753 22.9167 35.4167 18.253 35.4167 12.5C35.4167 6.74707 30.753 2.08337 25 2.08337C19.2471 2.08337 14.5834 6.74707 14.5834 12.5C14.5834 18.253 19.2471 22.9167 25 22.9167Z" stroke="#A0CB8A" stroke-width="2" stroke-linecap="round" stroke-linejoin="round"/>
<path d="M39.0278 48.0556C41.5207 48.0556 43.7777 47.0451 45.4114 45.4114C47.0451 43.7777 48.0556 41.5207 48.0556 39.0278C48.0556 36.5348 47.0451 34.2779 45.4114 32.6442C43.7777 31.0105 41.5207 30 39.0278 30C36.5348 30 34.2779 31.0105 32.6442 32.6442C31.0105 34.2779 30 36.5348 30 39.0278C30 41.5207 31.0105 43.7777 32.6442 45.4114C34.2779 47.0451 36.5348 48.0556 39.0278 48.0556Z" stroke="#A0CB8A" stroke-width="2" stroke-linejoin="round"/>
<path d="M35.4166 39.0278L38.125 41.7361L43.5416 36.3195" stroke="#A0CB8A" stroke-width="2" stroke-linecap="round" stroke-linejoin="round"/>
</svg>
