<svg width="50" height="50" viewBox="0 0 50 50" fill="none" xmlns="http://www.w3.org/2000/svg">
<g clip-path="url(#clip0_1112_3579)">
<path d="M25 31.25C14.6448 31.25 6.25 39.6448 6.25 50" stroke="#A0CB8A" stroke-width="2" stroke-linecap="round" stroke-linejoin="round"/>
<path d="M25 22.9167C30.753 22.9167 35.4167 18.253 35.4167 12.5C35.4167 6.74707 30.753 2.08337 25 2.08337C19.2471 2.08337 14.5834 6.74707 14.5834 12.5C14.5834 18.253 19.2471 22.9167 25 22.9167Z" stroke="#A0CB8A" stroke-width="2" stroke-linecap="round" stroke-linejoin="round"/>
<path d="M45.8337 48.3337L41.6149 44.1149M41.6149 44.1149C42.292 43.4378 42.8292 42.6339 43.1956 41.7492C43.5621 40.8645 43.7507 39.9163 43.7507 38.9587C43.7507 38.0011 43.5621 37.0528 43.1956 36.1681C42.8292 35.2834 42.292 34.4795 41.6149 33.8024C40.9378 33.1253 40.1339 32.5882 39.2492 32.2217C38.3645 31.8552 37.4163 31.6666 36.4587 31.6666C35.5011 31.6666 34.5528 31.8552 33.6681 32.2217C32.7834 32.5882 31.9795 33.1253 31.3024 33.8024C29.9349 35.1699 29.1666 37.0247 29.1666 38.9587C29.1666 40.8926 29.9349 42.7474 31.3024 44.1149C32.6699 45.4824 34.5247 46.2507 36.4587 46.2507C38.3926 46.2507 40.2474 45.4824 41.6149 44.1149Z" stroke="#A0CB8A" stroke-width="2" stroke-linecap="round" stroke-linejoin="round"/>
</g>
<defs>
<clipPath id="clip0_1112_3579">
<rect width="50" height="50" fill="white"/>
</clipPath>
</defs>
</svg>
