<svg width="16" height="12" viewBox="0 0 16 12" fill="none" xmlns="http://www.w3.org/2000/svg">
<g clip-path="url(#clip0_1115_1541)">
<path d="M3.63638 11.9409V5.79106L1.71919 4.04621L0 3.07794V10.8556C0 11.4561 0.489063 11.9409 1.09094 11.9409H3.63638Z" fill="#4285F4"/>
<path d="M12.3636 11.9409H14.9091C15.5128 11.9409 16 11.4543 16 10.8556V3.078L14.0528 4.18704L12.3636 5.79106V11.9409Z" fill="#34A853"/>
<path d="M3.63636 5.79107L3.37549 3.38815L3.63636 1.08832L7.99999 4.34411L12.3636 1.08832L12.6554 3.26399L12.3636 5.79107L7.99999 9.04687L3.63636 5.79107Z" fill="#EA4335"/>
<path d="M12.3636 1.08831V5.79107L16 3.07795V1.63092C16 0.288851 14.46 -0.476226 13.3819 0.328644L12.3636 1.08831Z" fill="#FBBC04"/>
<path d="M0 3.07798L1.67244 4.32585L3.63638 5.7911V1.08834L2.61813 0.328672C1.53813 -0.47626 0 0.28888 0 1.63089V3.07798Z" fill="#C5221F"/>
</g>
<defs>
<clipPath id="clip0_1115_1541">
<rect width="16" height="12" fill="white"/>
</clipPath>
</defs>
</svg>
