<svg width="16" height="16" viewBox="0 0 16 16" fill="none" xmlns="http://www.w3.org/2000/svg">
<g clip-path="url(#clip0_1115_1525)">
<path d="M15.4165 8.99418C15.4631 8.66744 15.4872 8.33786 15.4886 8.00781C15.4885 6.02089 14.6992 4.11537 13.2942 2.71042C11.8893 1.30546 9.98372 0.516154 7.99681 0.516121C7.66681 0.517496 7.33725 0.541558 7.0105 0.588121C5.16381 -0.407129 2.88287 -0.072817 1.39956 1.41062C-0.0837542 2.89406 -0.418129 5.17481 0.577121 7.0215C0.530558 7.34825 0.506496 7.67775 0.505058 8.00781C0.505058 12.1454 3.85925 15.4996 7.99681 15.4996C8.32681 15.4982 8.65643 15.4741 8.98318 15.4276C10.8298 16.4228 13.1107 16.0885 14.5941 14.6051C16.0774 13.1217 16.4118 10.8408 15.4165 8.99418Z" fill="white"/>
<path d="M4.74966 9.50396C7.36932 9.50396 9.49297 7.38031 9.49297 4.76065C9.49297 2.14099 7.36932 0.017334 4.74966 0.017334C2.13 0.017334 0.00634766 2.14099 0.00634766 4.76065C0.00634766 7.38031 2.13 9.50396 4.74966 9.50396Z" fill="url(#paint0_linear_1115_1525)"/>
<path d="M11.2439 15.9983C13.8636 15.9983 15.9872 13.8747 15.9872 11.255C15.9872 8.63537 13.8636 6.51172 11.2439 6.51172C8.62426 6.51172 6.50061 8.63537 6.50061 11.255C6.50061 13.8747 8.62426 15.9983 11.2439 15.9983Z" fill="url(#paint1_linear_1115_1525)"/>
<mask id="mask0_1115_1525" style="mask-type:luminance" maskUnits="userSpaceOnUse" x="0" y="0" width="16" height="16">
<path d="M11.2439 6.51174C10.3959 6.51153 9.56337 6.73926 8.8335 7.17111C10.0544 5.11236 9.55219 2.46655 7.66169 0.998362C5.77125 -0.469951 3.08356 -0.301639 1.39094 1.39099C-0.301623 3.08355 -0.469935 5.7713 0.998315 7.66174C2.4665 9.55224 5.11225 10.0545 7.17113 8.83355C6.078 10.6862 6.36844 13.0425 7.87875 14.5743C9.38913 16.106 11.7411 16.4296 13.609 15.3626C15.4769 14.2956 16.3929 12.1052 15.8406 10.0262C15.2883 7.94717 13.4062 6.50011 11.2549 6.50067L11.2439 6.51174Z" fill="white"/>
</mask>
<g mask="url(#mask0_1115_1525)">
<path d="M7.84665 17.2119C12.7417 17.2119 16.7099 13.2436 16.7099 8.3486C16.7099 3.45356 12.7417 -0.514648 7.84665 -0.514648C2.95161 -0.514648 -1.0166 3.45356 -1.0166 8.3486C-1.0166 13.2436 2.95161 17.2119 7.84665 17.2119Z" fill="url(#paint2_radial_1115_1525)"/>
</g>
<path d="M7.99675 15.4996C12.1343 15.4996 15.4885 12.1454 15.4885 8.00786C15.4885 3.87028 12.1343 0.516113 7.99675 0.516113C3.85918 0.516113 0.505005 3.87028 0.505005 8.00786C0.505005 12.1454 3.85918 15.4996 7.99675 15.4996Z" fill="url(#paint3_linear_1115_1525)"/>
<path d="M7.99675 15.4996C12.1343 15.4996 15.4885 12.1454 15.4885 8.00786C15.4885 3.87028 12.1343 0.516113 7.99675 0.516113C3.85918 0.516113 0.505005 3.87028 0.505005 8.00786C0.505005 12.1454 3.85918 15.4996 7.99675 15.4996Z" fill="url(#paint4_linear_1115_1525)"/>
<path d="M5.26492 7.08803C5.08874 6.75765 5.00094 6.38734 5.01004 6.01303C4.99872 5.53994 5.16026 5.07895 5.46442 4.71641C5.78443 4.35534 6.19319 4.0841 6.65023 3.92953C7.14671 3.75429 7.66974 3.66618 8.19623 3.66909C8.54131 3.66673 8.88601 3.69267 9.22685 3.74666C9.46987 3.78737 9.70901 3.84855 9.94173 3.92953C10.1531 4.00253 10.3433 4.1262 10.4959 4.28972C10.6123 4.42092 10.6755 4.59088 10.6732 4.76628C10.6774 4.85824 10.6635 4.95013 10.6321 5.03667C10.6007 5.12321 10.5525 5.20269 10.4903 5.27053C10.4322 5.33235 10.3617 5.38111 10.2834 5.41359C10.205 5.44606 10.1207 5.46151 10.0359 5.45891C9.91726 5.45714 9.80026 5.43073 9.69235 5.38134C9.43133 5.26572 9.1629 5.16758 8.88885 5.08759C8.63391 5.02094 8.37108 4.98928 8.1076 4.99347C7.76611 4.98201 7.42824 5.06645 7.13229 5.23722C7.00772 5.31288 6.90592 5.4208 6.83765 5.54957C6.76937 5.67833 6.73716 5.82315 6.74442 5.96872C6.74241 6.15806 6.81393 6.34079 6.94392 6.47847C7.10293 6.64249 7.29077 6.77585 7.49804 6.87191C7.72523 6.98272 8.05217 7.13234 8.5176 7.32078L8.66167 7.37616C9.10122 7.54368 9.52266 7.75533 9.91954 8.00784C10.2357 8.21283 10.5026 8.48534 10.7009 8.80578C10.8958 9.14193 10.9936 9.52558 10.9835 9.91403C10.9992 10.3899 10.8612 10.8581 10.59 11.2495C10.3118 11.6259 9.92511 11.9082 9.48179 12.0585C8.95751 12.2455 8.40361 12.3356 7.8471 12.3245C7.08623 12.3496 6.32923 12.2058 5.6306 11.9033C5.45165 11.8228 5.29412 11.7013 5.17073 11.5487C5.07371 11.4049 5.0234 11.2346 5.02667 11.0611C5.02059 10.9697 5.03483 10.8781 5.06836 10.7928C5.10189 10.7075 5.15388 10.6308 5.2206 10.568C5.35913 10.4454 5.54007 10.3817 5.72485 10.3906C5.93144 10.3936 6.13447 10.4448 6.31773 10.5402C6.54492 10.651 6.72223 10.7397 6.87185 10.7951C7.02017 10.8578 7.1742 10.9061 7.33179 10.9392C7.52625 10.9834 7.72534 11.0038 7.92473 11.0002C8.27764 11.0261 8.62901 10.9324 8.9221 10.7342C9.03281 10.6494 9.12137 10.5391 9.18022 10.4127C9.23908 10.2863 9.26648 10.1476 9.2601 10.0083C9.26544 9.80308 9.1898 9.60403 9.04954 9.45416C8.8688 9.2699 8.65916 9.11642 8.42892 8.99978C8.15742 8.85566 7.76954 8.68391 7.27642 8.47334C6.83327 8.29693 6.40828 8.07795 6.00742 7.81947C5.70767 7.62009 5.44635 7.39903 5.26492 7.08803Z" fill="white"/>
</g>
<defs>
<linearGradient id="paint0_linear_1115_1525" x1="400.086" y1="5.55753" x2="548.589" y2="943.14" gradientUnits="userSpaceOnUse">
<stop offset="0.01" stop-color="#00B7F0"/>
<stop offset="0.34" stop-color="#009DE5"/>
<stop offset="0.76" stop-color="#0082D9"/>
<stop offset="1" stop-color="#0078D4"/>
</linearGradient>
<linearGradient id="paint1_linear_1115_1525" x1="69.672" y1="718.009" x2="891.992" y2="243.677" gradientUnits="userSpaceOnUse">
<stop stop-color="#0078D4"/>
<stop offset="0.37" stop-color="#007AD5"/>
<stop offset="0.57" stop-color="#0082D9"/>
<stop offset="0.74" stop-color="#0090DF"/>
<stop offset="0.88" stop-color="#00A3E7"/>
<stop offset="1" stop-color="#00BCF2"/>
</linearGradient>
<radialGradient id="paint2_radial_1115_1525" cx="0" cy="0" r="1" gradientUnits="userSpaceOnUse" gradientTransform="translate(859.41 885.81) scale(886.697)">
<stop/>
<stop offset="1" stop-opacity="0"/>
</radialGradient>
<linearGradient id="paint3_linear_1115_1525" x1="456.543" y1="242.11" x2="1205.72" y2="1539.88" gradientUnits="userSpaceOnUse">
<stop stop-color="#00B7F0"/>
<stop offset="1" stop-color="#007CC1"/>
</linearGradient>
<linearGradient id="paint4_linear_1115_1525" x1="684.292" y1="1496.09" x2="815.068" y2="3.28809" gradientUnits="userSpaceOnUse">
<stop stop-color="#0078D4"/>
<stop offset="1" stop-color="#00BCF2"/>
</linearGradient>
<clipPath id="clip0_1115_1525">
<rect width="16" height="16" fill="white"/>
</clipPath>
</defs>
</svg>
