<svg width="16" height="16" viewBox="0 0 16 16" fill="none" xmlns="http://www.w3.org/2000/svg">
<g clip-path="url(#clip0_1115_1547)">
<path d="M3.36507 10.0825C3.36507 11.0095 2.61588 11.7587 1.68888 11.7587C0.761883 11.7587 0.0126953 11.0095 0.0126953 10.0825C0.0126953 9.15556 0.761883 8.40637 1.68895 8.40637H3.36501L3.36507 10.0825ZM4.2032 10.0825C4.2032 9.15556 4.95238 8.40637 5.87938 8.40637C6.80638 8.40637 7.55557 9.15556 7.55557 10.0826V14.273C7.55557 15.2 6.80638 15.9492 5.87932 15.9492C4.95245 15.9492 4.2032 15.2 4.2032 14.273V10.0825Z" fill="#E01E5A"/>
<path d="M5.87937 3.35238C4.95237 3.35238 4.20312 2.60319 4.20312 1.67619C4.20312 0.749188 4.95244 0 5.87937 0C6.80631 0 7.55556 0.749188 7.55556 1.67619V3.35244L5.87937 3.35238ZM5.87937 4.20319C6.80637 4.20319 7.55556 4.95237 7.55556 5.87937C7.55556 6.80637 6.80638 7.55556 5.87931 7.55556H1.67625C0.749187 7.55556 0 6.80638 0 5.87931C0 4.95244 0.749188 4.20319 1.67619 4.20319H5.87937Z" fill="#36C5F0"/>
<path d="M12.5969 5.87937C12.5969 4.95237 13.3461 4.20312 14.273 4.20312C15.1999 4.20312 15.9492 4.95237 15.9492 5.87937C15.9492 6.80637 15.2 7.55556 14.273 7.55556H12.5969V5.87937ZM11.7587 5.87937C11.7587 6.80637 11.0095 7.55556 10.0825 7.55556C9.15556 7.55556 8.40637 6.80638 8.40637 5.87931V1.67625C8.40637 0.749187 9.15556 0 10.0825 0C11.0094 0 11.7587 0.749188 11.7587 1.67619L11.7587 5.87937Z" fill="#2EB67D"/>
<path d="M10.0825 12.5969C11.0095 12.5969 11.7587 13.3461 11.7587 14.273C11.7587 15.1999 11.0095 15.9492 10.0825 15.9492C9.15556 15.9492 8.40637 15.2 8.40637 14.273V12.5969H10.0825ZM10.0825 11.7587C9.15556 11.7587 8.40637 11.0095 8.40637 10.0825C8.40637 9.15556 9.15556 8.40637 10.0826 8.40637H14.2857C15.2127 8.40637 15.9619 9.15556 15.9619 10.0826C15.9619 11.0096 15.2127 11.7587 14.2857 11.7587H10.0825Z" fill="#ECB22E"/>
</g>
<defs>
<clipPath id="clip0_1115_1547">
<rect width="16" height="16" fill="white"/>
</clipPath>
</defs>
</svg>
